<?xml version="1.0" encoding="UTF-8" standalone="no"?>
<!DOCTYPE svg PUBLIC "-//W3C//DTD SVG 1.1//EN"
 "http://www.w3.org/Graphics/SVG/1.1/DTD/svg11.dtd">
<!-- Generated by graphviz version 2.43.0 (0)
 -->
<!-- Title: %3 Pages: 1 -->
<svg width="376pt" height="238pt"
 viewBox="0.00 0.00 376.00 237.74" xmlns="http://www.w3.org/2000/svg" xmlns:xlink="http://www.w3.org/1999/xlink">
<g id="graph0" class="graph" transform="scale(1 1) rotate(0) translate(36 201.74)">
<title>%3</title>
<polygon fill="dimgray" stroke="transparent" points="-36,36 -36,-201.74 340,-201.74 340,36 -36,36"/>
<text text-anchor="middle" x="152" y="-150.54" font-family="Helvetica,sans-Serif" font-size="14.00">Sweep&#39;s Plan &amp; Progress</text>
<!-- start -->
<g id="node1" class="node">
<title>start</title>
</g>
<!-- bd053ce1&#45;3234&#45;409e&#45;ad28&#45;0ac64a3bb089 -->
<g id="node3" class="node">
<title>bd053ce1&#45;3234&#45;409e&#45;ad28&#45;0ac64a3bb089</title>
<ellipse fill="#0ee832" stroke="black" cx="152" cy="-99.87" rx="77.15" ry="26.74"/>
<text text-anchor="middle" x="152" y="-103.67" font-family="Helvetica,sans-Serif" font-size="14.00">✓ Modify</text>
<text text-anchor="middle" x="152" y="-88.67" font-family="Helvetica,sans-Serif" font-size="14.00">llm_model.py</text>
</g>
<!-- start&#45;&gt;bd053ce1&#45;3234&#45;409e&#45;ad28&#45;0ac64a3bb089 -->
<g id="edge2" class="edge">
<title>start&#45;&gt;bd053ce1&#45;3234&#45;409e&#45;ad28&#45;0ac64a3bb089</title>
<path fill="none" stroke="black" d="M23.82,-99.87C27.66,-99.87 44.44,-99.87 64.66,-99.87"/>
<polygon fill="black" stroke="black" points="64.82,-103.37 74.82,-99.87 64.82,-96.37 64.82,-103.37"/>
<text text-anchor="middle" x="49.21" y="-106.67" font-family="Helvetica,sans-Serif" font-size="14.00">Start</text>
</g>
<!-- end -->
<g id="node2" class="node">
<title>end</title>
</g>
<!-- bd053ce1&#45;3234&#45;409e&#45;ad28&#45;0ac64a3bb089&#45;&gt;end -->
<g id="edge3" class="edge">
<title>bd053ce1&#45;3234&#45;409e&#45;ad28&#45;0ac64a3bb089&#45;&gt;end</title>
<path fill="none" stroke="black" d="M229.36,-99.87C247.94,-99.87 265.5,-99.87 276.25,-99.87"/>
<polygon fill="black" stroke="black" points="276.3,-103.37 286.3,-99.87 276.3,-96.37 276.3,-103.37"/>
<text text-anchor="middle" x="257.79" y="-106.67" font-family="Helvetica,sans-Serif" font-size="14.00">Finish</text>
</g>
<!-- ffee8851&#45;a677&#45;422f&#45;b5b5&#45;770abcddcbb3 -->
<g id="node4" class="node">
<title>ffee8851&#45;a677&#45;422f&#45;b5b5&#45;770abcddcbb3</title>
<polygon fill="yellow" stroke="black" points="304,-36 0,-36 0,0 304,0 304,-36"/>
<text text-anchor="middle" x="152" y="-14.3" font-family="Helvetica,sans-Serif" font-size="14.00">⋯ Run GitHub Actions for `llm_model.py`</text>
</g>
<!-- bd053ce1&#45;3234&#45;409e&#45;ad28&#45;0ac64a3bb089&#45;&gt;ffee8851&#45;a677&#45;422f&#45;b5b5&#45;770abcddcbb3 -->
<g id="edge1" class="edge">
<title>bd053ce1&#45;3234&#45;409e&#45;ad28&#45;0ac64a3bb089&#45;&gt;ffee8851&#45;a677&#45;422f&#45;b5b5&#45;770abcddcbb3</title>
<path fill="none" stroke="black" stroke-dasharray="5,2" d="M152,-72.72C152,-64.27 152,-54.89 152,-46.36"/>
<polygon fill="black" stroke="black" points="155.5,-46.15 152,-36.15 148.5,-46.15 155.5,-46.15"/>
</g>
</g>
</svg>
