<?xml version="1.0" encoding="UTF-8" standalone="no"?>
<!DOCTYPE svg PUBLIC "-//W3C//DTD SVG 1.1//EN"
 "http://www.w3.org/Graphics/SVG/1.1/DTD/svg11.dtd">
<!-- Generated by graphviz version 2.43.0 (0)
 -->
<!-- Title: %3 Pages: 1 -->
<svg width="372pt" height="238pt"
 viewBox="0.00 0.00 372.00 237.74" xmlns="http://www.w3.org/2000/svg" xmlns:xlink="http://www.w3.org/1999/xlink">
<g id="graph0" class="graph" transform="scale(1 1) rotate(0) translate(36 201.74)">
<title>%3</title>
<polygon fill="dimgray" stroke="transparent" points="-36,36 -36,-201.74 336,-201.74 336,36 -36,36"/>
<text text-anchor="middle" x="150" y="-150.54" font-family="Helvetica,sans-Serif" font-size="14.00">Sweep&#39;s Plan &amp; Progress</text>
<!-- start -->
<g id="node1" class="node">
<title>start</title>
</g>
<!-- bd053ce1&#45;3234&#45;409e&#45;ad28&#45;0ac64a3bb089 -->
<g id="node3" class="node">
<title>bd053ce1&#45;3234&#45;409e&#45;ad28&#45;0ac64a3bb089</title>
<ellipse fill="yellow" stroke="black" cx="150" cy="-99.87" rx="77.15" ry="26.74"/>
<text text-anchor="middle" x="150" y="-103.67" font-family="Helvetica,sans-Serif" font-size="14.00">⋯ Modify</text>
<text text-anchor="middle" x="150" y="-88.67" font-family="Helvetica,sans-Serif" font-size="14.00">llm_model.py</text>
</g>
<!-- start&#45;&gt;bd053ce1&#45;3234&#45;409e&#45;ad28&#45;0ac64a3bb089 -->
<g id="edge2" class="edge">
<title>start&#45;&gt;bd053ce1&#45;3234&#45;409e&#45;ad28&#45;0ac64a3bb089</title>
<path fill="none" stroke="black" d="M21.82,-99.87C25.66,-99.87 42.44,-99.87 62.66,-99.87"/>
<polygon fill="black" stroke="black" points="62.82,-103.37 72.82,-99.87 62.82,-96.37 62.82,-103.37"/>
<text text-anchor="middle" x="47.21" y="-106.67" font-family="Helvetica,sans-Serif" font-size="14.00">Start</text>
</g>
<!-- end -->
<g id="node2" class="node">
<title>end</title>
</g>
<!-- bd053ce1&#45;3234&#45;409e&#45;ad28&#45;0ac64a3bb089&#45;&gt;end -->
<g id="edge3" class="edge">
<title>bd053ce1&#45;3234&#45;409e&#45;ad28&#45;0ac64a3bb089&#45;&gt;end</title>
<path fill="none" stroke="black" d="M227.36,-99.87C245.94,-99.87 263.5,-99.87 274.25,-99.87"/>
<polygon fill="black" stroke="black" points="274.3,-103.37 284.3,-99.87 274.3,-96.37 274.3,-103.37"/>
<text text-anchor="middle" x="255.79" y="-106.67" font-family="Helvetica,sans-Serif" font-size="14.00">Finish</text>
</g>
<!-- ffee8851&#45;a677&#45;422f&#45;b5b5&#45;770abcddcbb3 -->
<g id="node4" class="node">
<title>ffee8851&#45;a677&#45;422f&#45;b5b5&#45;770abcddcbb3</title>
<polygon fill="white" stroke="black" points="300,-36 0,-36 0,0 300,0 300,-36"/>
<text text-anchor="middle" x="150" y="-14.3" font-family="Helvetica,sans-Serif" font-size="14.00">▶ Run GitHub Actions for `llm_model.py`</text>
</g>
<!-- bd053ce1&#45;3234&#45;409e&#45;ad28&#45;0ac64a3bb089&#45;&gt;ffee8851&#45;a677&#45;422f&#45;b5b5&#45;770abcddcbb3 -->
<g id="edge1" class="edge">
<title>bd053ce1&#45;3234&#45;409e&#45;ad28&#45;0ac64a3bb089&#45;&gt;ffee8851&#45;a677&#45;422f&#45;b5b5&#45;770abcddcbb3</title>
<path fill="none" stroke="black" stroke-dasharray="5,2" d="M150,-72.72C150,-64.27 150,-54.89 150,-46.36"/>
<polygon fill="black" stroke="black" points="153.5,-46.15 150,-36.15 146.5,-46.15 153.5,-46.15"/>
</g>
</g>
</svg>
