<?xml version="1.0" encoding="UTF-8" standalone="no"?>
<!DOCTYPE svg PUBLIC "-//W3C//DTD SVG 1.1//EN"
 "http://www.w3.org/Graphics/SVG/1.1/DTD/svg11.dtd">
<!-- Generated by graphviz version 2.43.0 (0)
 -->
<!-- Title: %3 Pages: 1 -->
<svg width="690pt" height="238pt"
 viewBox="0.00 0.00 690.00 237.74" xmlns="http://www.w3.org/2000/svg" xmlns:xlink="http://www.w3.org/1999/xlink">
<g id="graph0" class="graph" transform="scale(1 1) rotate(0) translate(36 201.74)">
<title>%3</title>
<polygon fill="dimgray" stroke="transparent" points="-36,36 -36,-201.74 654,-201.74 654,36 -36,36"/>
<text text-anchor="middle" x="309" y="-150.54" font-family="Helvetica,sans-Serif" font-size="14.00">Sweep&#39;s Plan &amp; Progress</text>
<!-- start -->
<g id="node1" class="node">
<title>start</title>
</g>
<!-- 7693a97a&#45;b267&#45;4b9f&#45;a8f1&#45;1df7291f62f9 -->
<g id="node3" class="node">
<title>7693a97a&#45;b267&#45;4b9f&#45;a8f1&#45;1df7291f62f9</title>
<ellipse fill="yellow" stroke="black" cx="214" cy="-99.87" rx="77.15" ry="26.74"/>
<text text-anchor="middle" x="214" y="-103.67" font-family="Helvetica,sans-Serif" font-size="14.00">⋯ Modify</text>
<text text-anchor="middle" x="214" y="-88.67" font-family="Helvetica,sans-Serif" font-size="14.00">llm_model.py</text>
</g>
<!-- start&#45;&gt;7693a97a&#45;b267&#45;4b9f&#45;a8f1&#45;1df7291f62f9 -->
<g id="edge4" class="edge">
<title>start&#45;&gt;7693a97a&#45;b267&#45;4b9f&#45;a8f1&#45;1df7291f62f9</title>
<path fill="none" stroke="black" d="M85.82,-99.87C89.66,-99.87 106.44,-99.87 126.66,-99.87"/>
<polygon fill="black" stroke="black" points="126.82,-103.37 136.82,-99.87 126.82,-96.37 126.82,-103.37"/>
<text text-anchor="middle" x="111.21" y="-106.67" font-family="Helvetica,sans-Serif" font-size="14.00">Start</text>
</g>
<!-- end -->
<g id="node2" class="node">
<title>end</title>
</g>
<!-- 883cb472&#45;e822&#45;4eb6&#45;8bb9&#45;c30ecc4d22ea -->
<g id="node4" class="node">
<title>883cb472&#45;e822&#45;4eb6&#45;8bb9&#45;c30ecc4d22ea</title>
<ellipse fill="white" stroke="black" cx="436" cy="-99.87" rx="77.15" ry="26.74"/>
<text text-anchor="middle" x="436" y="-103.67" font-family="Helvetica,sans-Serif" font-size="14.00">▶ Modify</text>
<text text-anchor="middle" x="436" y="-88.67" font-family="Helvetica,sans-Serif" font-size="14.00">llm_model.py</text>
</g>
<!-- 7693a97a&#45;b267&#45;4b9f&#45;a8f1&#45;1df7291f62f9&#45;&gt;883cb472&#45;e822&#45;4eb6&#45;8bb9&#45;c30ecc4d22ea -->
<g id="edge2" class="edge">
<title>7693a97a&#45;b267&#45;4b9f&#45;a8f1&#45;1df7291f62f9&#45;&gt;883cb472&#45;e822&#45;4eb6&#45;8bb9&#45;c30ecc4d22ea</title>
<path fill="none" stroke="black" d="M291.18,-99.87C310.37,-99.87 329.56,-99.87 348.75,-99.87"/>
<polygon fill="black" stroke="black" points="348.78,-103.37 358.78,-99.87 348.78,-96.37 348.78,-103.37"/>
</g>
<!-- 357fa25b&#45;a99a&#45;4eb9&#45;9ffd&#45;abda60985221 -->
<g id="node5" class="node">
<title>357fa25b&#45;a99a&#45;4eb9&#45;9ffd&#45;abda60985221</title>
<polygon fill="white" stroke="black" points="300,-36 0,-36 0,0 300,0 300,-36"/>
<text text-anchor="middle" x="150" y="-14.3" font-family="Helvetica,sans-Serif" font-size="14.00">▶ Run GitHub Actions for `llm_model.py`</text>
</g>
<!-- 7693a97a&#45;b267&#45;4b9f&#45;a8f1&#45;1df7291f62f9&#45;&gt;357fa25b&#45;a99a&#45;4eb9&#45;9ffd&#45;abda60985221 -->
<g id="edge1" class="edge">
<title>7693a97a&#45;b267&#45;4b9f&#45;a8f1&#45;1df7291f62f9&#45;&gt;357fa25b&#45;a99a&#45;4eb9&#45;9ffd&#45;abda60985221</title>
<path fill="none" stroke="black" stroke-dasharray="5,2" d="M193.75,-73.6C186.16,-64.13 177.54,-53.37 169.98,-43.93"/>
<polygon fill="black" stroke="black" points="172.64,-41.65 163.65,-36.04 167.17,-46.03 172.64,-41.65"/>
</g>
<!-- 883cb472&#45;e822&#45;4eb6&#45;8bb9&#45;c30ecc4d22ea&#45;&gt;end -->
<g id="edge5" class="edge">
<title>883cb472&#45;e822&#45;4eb6&#45;8bb9&#45;c30ecc4d22ea&#45;&gt;end</title>
<path fill="none" stroke="black" d="M513.36,-99.87C531.94,-99.87 549.5,-99.87 560.25,-99.87"/>
<polygon fill="black" stroke="black" points="560.3,-103.37 570.3,-99.87 560.3,-96.37 560.3,-103.37"/>
<text text-anchor="middle" x="541.79" y="-106.67" font-family="Helvetica,sans-Serif" font-size="14.00">Finish</text>
</g>
<!-- 41970c89&#45;3422&#45;459b&#45;a0a3&#45;10fa133cee7e -->
<g id="node6" class="node">
<title>41970c89&#45;3422&#45;459b&#45;a0a3&#45;10fa133cee7e</title>
<polygon fill="white" stroke="black" points="618,-36 318,-36 318,0 618,0 618,-36"/>
<text text-anchor="middle" x="468" y="-14.3" font-family="Helvetica,sans-Serif" font-size="14.00">▶ Run GitHub Actions for `llm_model.py`</text>
</g>
<!-- 883cb472&#45;e822&#45;4eb6&#45;8bb9&#45;c30ecc4d22ea&#45;&gt;41970c89&#45;3422&#45;459b&#45;a0a3&#45;10fa133cee7e -->
<g id="edge3" class="edge">
<title>883cb472&#45;e822&#45;4eb6&#45;8bb9&#45;c30ecc4d22ea&#45;&gt;41970c89&#45;3422&#45;459b&#45;a0a3&#45;10fa133cee7e</title>
<path fill="none" stroke="black" stroke-dasharray="5,2" d="M446.3,-73.16C449.81,-64.41 453.73,-54.62 457.27,-45.79"/>
<polygon fill="black" stroke="black" points="460.58,-46.92 461.05,-36.34 454.09,-44.32 460.58,-46.92"/>
</g>
</g>
</svg>
