<?xml version="1.0" encoding="UTF-8" standalone="no"?>
<!DOCTYPE svg PUBLIC "-//W3C//DTD SVG 1.1//EN"
 "http://www.w3.org/Graphics/SVG/1.1/DTD/svg11.dtd">
<!-- Generated by graphviz version 2.43.0 (0)
 -->
<!-- Title: %3 Pages: 1 -->
<svg width="1042pt" height="238pt"
 viewBox="0.00 0.00 1042.00 237.74" xmlns="http://www.w3.org/2000/svg" xmlns:xlink="http://www.w3.org/1999/xlink">
<g id="graph0" class="graph" transform="scale(1 1) rotate(0) translate(36 201.74)">
<title>%3</title>
<polygon fill="dimgray" stroke="transparent" points="-36,36 -36,-201.74 1006,-201.74 1006,36 -36,36"/>
<text text-anchor="middle" x="485" y="-150.54" font-family="Helvetica,sans-Serif" font-size="14.00">Sweep&#39;s Plan &amp; Progress</text>
<!-- start -->
<g id="node1" class="node">
<title>start</title>
</g>
<!-- c5ed4f06&#45;50a2&#45;4e13&#45;90ad&#45;136fe1867cff -->
<g id="node3" class="node">
<title>c5ed4f06&#45;50a2&#45;4e13&#45;90ad&#45;136fe1867cff</title>
<ellipse fill="#0ee832" stroke="black" cx="243" cy="-99.87" rx="122.16" ry="26.74"/>
<text text-anchor="middle" x="243" y="-103.67" font-family="Helvetica,sans-Serif" font-size="14.00">✓ Create</text>
<text text-anchor="middle" x="243" y="-88.67" font-family="Helvetica,sans-Serif" font-size="14.00">templates/navbar.html</text>
</g>
<!-- start&#45;&gt;c5ed4f06&#45;50a2&#45;4e13&#45;90ad&#45;136fe1867cff -->
<g id="edge6" class="edge">
<title>start&#45;&gt;c5ed4f06&#45;50a2&#45;4e13&#45;90ad&#45;136fe1867cff</title>
<path fill="none" stroke="black" d="M69.78,-99.87C73.39,-99.87 89.33,-99.87 110.17,-99.87"/>
<polygon fill="black" stroke="black" points="110.42,-103.37 120.42,-99.87 110.42,-96.37 110.42,-103.37"/>
<text text-anchor="middle" x="95.09" y="-106.67" font-family="Helvetica,sans-Serif" font-size="14.00">Start</text>
</g>
<!-- end -->
<g id="node2" class="node">
<title>end</title>
</g>
<!-- 5fbbaca5&#45;46d9&#45;4ff6&#45;8ca5&#45;c78f9e83715a -->
<g id="node4" class="node">
<title>5fbbaca5&#45;46d9&#45;4ff6&#45;8ca5&#45;c78f9e83715a</title>
<ellipse fill="white" stroke="black" cx="514" cy="-99.87" rx="54.39" ry="26.74"/>
<text text-anchor="middle" x="514" y="-103.67" font-family="Helvetica,sans-Serif" font-size="14.00">▶ Modify</text>
<text text-anchor="middle" x="514" y="-88.67" font-family="Helvetica,sans-Serif" font-size="14.00">app.py</text>
</g>
<!-- c5ed4f06&#45;50a2&#45;4e13&#45;90ad&#45;136fe1867cff&#45;&gt;5fbbaca5&#45;46d9&#45;4ff6&#45;8ca5&#45;c78f9e83715a -->
<g id="edge2" class="edge">
<title>c5ed4f06&#45;50a2&#45;4e13&#45;90ad&#45;136fe1867cff&#45;&gt;5fbbaca5&#45;46d9&#45;4ff6&#45;8ca5&#45;c78f9e83715a</title>
<path fill="none" stroke="black" d="M365.53,-99.87C393.42,-99.87 421.32,-99.87 449.21,-99.87"/>
<polygon fill="black" stroke="black" points="449.48,-103.37 459.48,-99.87 449.48,-96.37 449.48,-103.37"/>
</g>
<!-- b2a248e5&#45;397e&#45;4f75&#45;bc4c&#45;266965b63fd5 -->
<g id="node6" class="node">
<title>b2a248e5&#45;397e&#45;4f75&#45;bc4c&#45;266965b63fd5</title>
<polygon fill="yellow" stroke="black" points="368,-36 0,-36 0,0 368,0 368,-36"/>
<text text-anchor="middle" x="184" y="-14.3" font-family="Helvetica,sans-Serif" font-size="14.00">⋯ Run GitHub Actions for `templates/navbar.html`</text>
</g>
<!-- c5ed4f06&#45;50a2&#45;4e13&#45;90ad&#45;136fe1867cff&#45;&gt;b2a248e5&#45;397e&#45;4f75&#45;bc4c&#45;266965b63fd5 -->
<g id="edge1" class="edge">
<title>c5ed4f06&#45;50a2&#45;4e13&#45;90ad&#45;136fe1867cff&#45;&gt;b2a248e5&#45;397e&#45;4f75&#45;bc4c&#45;266965b63fd5</title>
<path fill="none" stroke="black" stroke-dasharray="5,2" d="M224.01,-73.16C217.27,-64.04 209.69,-53.77 202.95,-44.65"/>
<polygon fill="black" stroke="black" points="205.56,-42.3 196.81,-36.34 199.93,-46.46 205.56,-42.3"/>
</g>
<!-- 6bd4e5f4&#45;8714&#45;48a0&#45;a493&#45;d9af84b109fa -->
<g id="node5" class="node">
<title>6bd4e5f4&#45;8714&#45;48a0&#45;a493&#45;d9af84b109fa</title>
<ellipse fill="white" stroke="black" cx="752" cy="-99.87" rx="84.29" ry="26.74"/>
<text text-anchor="middle" x="752" y="-103.67" font-family="Helvetica,sans-Serif" font-size="14.00">▶ Modify</text>
<text text-anchor="middle" x="752" y="-88.67" font-family="Helvetica,sans-Serif" font-size="14.00">static/style.css</text>
</g>
<!-- 5fbbaca5&#45;46d9&#45;4ff6&#45;8ca5&#45;c78f9e83715a&#45;&gt;6bd4e5f4&#45;8714&#45;48a0&#45;a493&#45;d9af84b109fa -->
<g id="edge4" class="edge">
<title>5fbbaca5&#45;46d9&#45;4ff6&#45;8ca5&#45;c78f9e83715a&#45;&gt;6bd4e5f4&#45;8714&#45;48a0&#45;a493&#45;d9af84b109fa</title>
<path fill="none" stroke="black" d="M568.85,-99.87C598.42,-99.87 627.99,-99.87 657.55,-99.87"/>
<polygon fill="black" stroke="black" points="657.58,-103.37 667.58,-99.87 657.58,-96.37 657.58,-103.37"/>
</g>
<!-- a45cd99f&#45;9482&#45;4444&#45;be90&#45;01962d4fd2b5 -->
<g id="node7" class="node">
<title>a45cd99f&#45;9482&#45;4444&#45;be90&#45;01962d4fd2b5</title>
<polygon fill="white" stroke="black" points="642,-36 386,-36 386,0 642,0 642,-36"/>
<text text-anchor="middle" x="514" y="-14.3" font-family="Helvetica,sans-Serif" font-size="14.00">▶ Run GitHub Actions for `app.py`</text>
</g>
<!-- 5fbbaca5&#45;46d9&#45;4ff6&#45;8ca5&#45;c78f9e83715a&#45;&gt;a45cd99f&#45;9482&#45;4444&#45;be90&#45;01962d4fd2b5 -->
<g id="edge3" class="edge">
<title>5fbbaca5&#45;46d9&#45;4ff6&#45;8ca5&#45;c78f9e83715a&#45;&gt;a45cd99f&#45;9482&#45;4444&#45;be90&#45;01962d4fd2b5</title>
<path fill="none" stroke="black" stroke-dasharray="5,2" d="M514,-72.72C514,-64.27 514,-54.89 514,-46.36"/>
<polygon fill="black" stroke="black" points="517.5,-46.15 514,-36.15 510.5,-46.15 517.5,-46.15"/>
</g>
<!-- 6bd4e5f4&#45;8714&#45;48a0&#45;a493&#45;d9af84b109fa&#45;&gt;end -->
<g id="edge7" class="edge">
<title>6bd4e5f4&#45;8714&#45;48a0&#45;a493&#45;d9af84b109fa&#45;&gt;end</title>
<path fill="none" stroke="black" d="M836.24,-99.87C854.86,-99.87 872.22,-99.87 882.95,-99.87"/>
<polygon fill="black" stroke="black" points="883.3,-103.37 893.3,-99.87 883.3,-96.37 883.3,-103.37"/>
<text text-anchor="middle" x="864.82" y="-106.67" font-family="Helvetica,sans-Serif" font-size="14.00">Finish</text>
</g>
<!-- 670bf962&#45;5e35&#45;4168&#45;9e21&#45;7104369c8764 -->
<g id="node8" class="node">
<title>670bf962&#45;5e35&#45;4168&#45;9e21&#45;7104369c8764</title>
<polygon fill="white" stroke="black" points="970,-36 660,-36 660,0 970,0 970,-36"/>
<text text-anchor="middle" x="815" y="-14.3" font-family="Helvetica,sans-Serif" font-size="14.00">▶ Run GitHub Actions for `static/style.css`</text>
</g>
<!-- 6bd4e5f4&#45;8714&#45;48a0&#45;a493&#45;d9af84b109fa&#45;&gt;670bf962&#45;5e35&#45;4168&#45;9e21&#45;7104369c8764 -->
<g id="edge5" class="edge">
<title>6bd4e5f4&#45;8714&#45;48a0&#45;a493&#45;d9af84b109fa&#45;&gt;670bf962&#45;5e35&#45;4168&#45;9e21&#45;7104369c8764</title>
<path fill="none" stroke="black" stroke-dasharray="5,2" d="M771.93,-73.6C779.41,-64.13 787.89,-53.37 795.33,-43.93"/>
<polygon fill="black" stroke="black" points="798.12,-46.06 801.56,-36.04 792.62,-41.72 798.12,-46.06"/>
</g>
</g>
</svg>
