<?xml version="1.0" encoding="UTF-8" standalone="no"?>
<!DOCTYPE svg PUBLIC "-//W3C//DTD SVG 1.1//EN"
 "http://www.w3.org/Graphics/SVG/1.1/DTD/svg11.dtd">
<!-- Generated by graphviz version 2.43.0 (0)
 -->
<!-- Title: %3 Pages: 1 -->
<svg width="656pt" height="238pt"
 viewBox="0.00 0.00 656.00 237.74" xmlns="http://www.w3.org/2000/svg" xmlns:xlink="http://www.w3.org/1999/xlink">
<g id="graph0" class="graph" transform="scale(1 1) rotate(0) translate(36 201.74)">
<title>%3</title>
<polygon fill="dimgray" stroke="transparent" points="-36,36 -36,-201.74 620,-201.74 620,36 -36,36"/>
<text text-anchor="middle" x="292" y="-150.54" font-family="Helvetica,sans-Serif" font-size="14.00">Sweep&#39;s Plan &amp; Progress</text>
<!-- start -->
<g id="node1" class="node">
<title>start</title>
</g>
<!-- 492bbc09&#45;b167&#45;4ebd&#45;896f&#45;1cbc261467cf -->
<g id="node3" class="node">
<title>492bbc09&#45;b167&#45;4ebd&#45;896f&#45;1cbc261467cf</title>
<ellipse fill="yellow" stroke="black" cx="190" cy="-99.87" rx="57.05" ry="26.74"/>
<text text-anchor="middle" x="190" y="-103.67" font-family="Helvetica,sans-Serif" font-size="14.00">⋯ Modify</text>
<text text-anchor="middle" x="190" y="-88.67" font-family="Helvetica,sans-Serif" font-size="14.00">app.py</text>
</g>
<!-- start&#45;&gt;492bbc09&#45;b167&#45;4ebd&#45;896f&#45;1cbc261467cf -->
<g id="edge4" class="edge">
<title>start&#45;&gt;492bbc09&#45;b167&#45;4ebd&#45;896f&#45;1cbc261467cf</title>
<path fill="none" stroke="black" d="M81.7,-99.87C85.33,-99.87 102.67,-99.87 122.46,-99.87"/>
<polygon fill="black" stroke="black" points="122.64,-103.37 132.64,-99.87 122.64,-96.37 122.64,-103.37"/>
<text text-anchor="middle" x="107.11" y="-106.67" font-family="Helvetica,sans-Serif" font-size="14.00">Start</text>
</g>
<!-- end -->
<g id="node2" class="node">
<title>end</title>
</g>
<!-- 1fbeb2dc&#45;a185&#45;42f7&#45;a603&#45;d73ad65c8a10 -->
<g id="node4" class="node">
<title>1fbeb2dc&#45;a185&#45;42f7&#45;a603&#45;d73ad65c8a10</title>
<ellipse fill="white" stroke="black" cx="398" cy="-99.87" rx="84.29" ry="26.74"/>
<text text-anchor="middle" x="398" y="-103.67" font-family="Helvetica,sans-Serif" font-size="14.00">▶ Modify</text>
<text text-anchor="middle" x="398" y="-88.67" font-family="Helvetica,sans-Serif" font-size="14.00">static/style.css</text>
</g>
<!-- 492bbc09&#45;b167&#45;4ebd&#45;896f&#45;1cbc261467cf&#45;&gt;1fbeb2dc&#45;a185&#45;42f7&#45;a603&#45;d73ad65c8a10 -->
<g id="edge2" class="edge">
<title>492bbc09&#45;b167&#45;4ebd&#45;896f&#45;1cbc261467cf&#45;&gt;1fbeb2dc&#45;a185&#45;42f7&#45;a603&#45;d73ad65c8a10</title>
<path fill="none" stroke="black" d="M247.28,-99.87C266.08,-99.87 284.88,-99.87 303.67,-99.87"/>
<polygon fill="black" stroke="black" points="303.81,-103.37 313.81,-99.87 303.81,-96.37 303.81,-103.37"/>
</g>
<!-- 104fb43b&#45;a897&#45;4b87&#45;872c&#45;d941af77f26a -->
<g id="node5" class="node">
<title>104fb43b&#45;a897&#45;4b87&#45;872c&#45;d941af77f26a</title>
<polygon fill="white" stroke="black" points="256,-36 0,-36 0,0 256,0 256,-36"/>
<text text-anchor="middle" x="128" y="-14.3" font-family="Helvetica,sans-Serif" font-size="14.00">▶ Run GitHub Actions for `app.py`</text>
</g>
<!-- 492bbc09&#45;b167&#45;4ebd&#45;896f&#45;1cbc261467cf&#45;&gt;104fb43b&#45;a897&#45;4b87&#45;872c&#45;d941af77f26a -->
<g id="edge1" class="edge">
<title>492bbc09&#45;b167&#45;4ebd&#45;896f&#45;1cbc261467cf&#45;&gt;104fb43b&#45;a897&#45;4b87&#45;872c&#45;d941af77f26a</title>
<path fill="none" stroke="black" stroke-dasharray="5,2" d="M171.06,-74.47C163.62,-64.89 155.09,-53.9 147.59,-44.24"/>
<polygon fill="black" stroke="black" points="150.22,-41.91 141.32,-36.16 144.69,-46.21 150.22,-41.91"/>
</g>
<!-- 1fbeb2dc&#45;a185&#45;42f7&#45;a603&#45;d73ad65c8a10&#45;&gt;end -->
<g id="edge5" class="edge">
<title>1fbeb2dc&#45;a185&#45;42f7&#45;a603&#45;d73ad65c8a10&#45;&gt;end</title>
<path fill="none" stroke="black" d="M482.24,-99.87C500.86,-99.87 518.22,-99.87 528.95,-99.87"/>
<polygon fill="black" stroke="black" points="529.3,-103.37 539.3,-99.87 529.3,-96.37 529.3,-103.37"/>
<text text-anchor="middle" x="510.82" y="-106.67" font-family="Helvetica,sans-Serif" font-size="14.00">Finish</text>
</g>
<!-- 7e78e346&#45;aaa7&#45;4d0f&#45;97a3&#45;b3d42c734249 -->
<g id="node6" class="node">
<title>7e78e346&#45;aaa7&#45;4d0f&#45;97a3&#45;b3d42c734249</title>
<polygon fill="white" stroke="black" points="584,-36 274,-36 274,0 584,0 584,-36"/>
<text text-anchor="middle" x="429" y="-14.3" font-family="Helvetica,sans-Serif" font-size="14.00">▶ Run GitHub Actions for `static/style.css`</text>
</g>
<!-- 1fbeb2dc&#45;a185&#45;42f7&#45;a603&#45;d73ad65c8a10&#45;&gt;7e78e346&#45;aaa7&#45;4d0f&#45;97a3&#45;b3d42c734249 -->
<g id="edge3" class="edge">
<title>1fbeb2dc&#45;a185&#45;42f7&#45;a603&#45;d73ad65c8a10&#45;&gt;7e78e346&#45;aaa7&#45;4d0f&#45;97a3&#45;b3d42c734249</title>
<path fill="none" stroke="black" stroke-dasharray="5,2" d="M407.98,-73.16C411.37,-64.41 415.18,-54.62 418.6,-45.79"/>
<polygon fill="black" stroke="black" points="421.92,-46.93 422.27,-36.34 415.39,-44.39 421.92,-46.93"/>
</g>
</g>
</svg>
