<?xml version="1.0" encoding="UTF-8" standalone="no"?>
<!DOCTYPE svg PUBLIC "-//W3C//DTD SVG 1.1//EN"
 "http://www.w3.org/Graphics/SVG/1.1/DTD/svg11.dtd">
<!-- Generated by graphviz version 2.43.0 (0)
 -->
<!-- Title: %3 Pages: 1 -->
<svg width="662pt" height="238pt"
 viewBox="0.00 0.00 661.50 237.74" xmlns="http://www.w3.org/2000/svg" xmlns:xlink="http://www.w3.org/1999/xlink">
<g id="graph0" class="graph" transform="scale(1 1) rotate(0) translate(36 201.74)">
<title>%3</title>
<polygon fill="dimgray" stroke="transparent" points="-36,36 -36,-201.74 625.5,-201.74 625.5,36 -36,36"/>
<text text-anchor="middle" x="294.75" y="-150.54" font-family="Helvetica,sans-Serif" font-size="14.00">Sweep&#39;s Plan &amp; Progress</text>
<!-- start -->
<g id="node1" class="node">
<title>start</title>
</g>
<!-- 492bbc09&#45;b167&#45;4ebd&#45;896f&#45;1cbc261467cf -->
<g id="node3" class="node">
<title>492bbc09&#45;b167&#45;4ebd&#45;896f&#45;1cbc261467cf</title>
<ellipse fill="#0ee832" stroke="black" cx="192.5" cy="-99.87" rx="55.72" ry="26.74"/>
<text text-anchor="middle" x="192.5" y="-103.67" font-family="Helvetica,sans-Serif" font-size="14.00">✓ Modify</text>
<text text-anchor="middle" x="192.5" y="-88.67" font-family="Helvetica,sans-Serif" font-size="14.00">app.py</text>
</g>
<!-- start&#45;&gt;492bbc09&#45;b167&#45;4ebd&#45;896f&#45;1cbc261467cf -->
<g id="edge4" class="edge">
<title>start&#45;&gt;492bbc09&#45;b167&#45;4ebd&#45;896f&#45;1cbc261467cf</title>
<path fill="none" stroke="black" d="M85.19,-99.87C88.83,-99.87 106.42,-99.87 126.33,-99.87"/>
<polygon fill="black" stroke="black" points="126.57,-103.37 136.57,-99.87 126.57,-96.37 126.57,-103.37"/>
<text text-anchor="middle" x="110.82" y="-106.67" font-family="Helvetica,sans-Serif" font-size="14.00">Start</text>
</g>
<!-- end -->
<g id="node2" class="node">
<title>end</title>
</g>
<!-- 1fbeb2dc&#45;a185&#45;42f7&#45;a603&#45;d73ad65c8a10 -->
<g id="node4" class="node">
<title>1fbeb2dc&#45;a185&#45;42f7&#45;a603&#45;d73ad65c8a10</title>
<ellipse fill="#0ee832" stroke="black" cx="400.5" cy="-99.87" rx="84.29" ry="26.74"/>
<text text-anchor="middle" x="400.5" y="-103.67" font-family="Helvetica,sans-Serif" font-size="14.00">✓ Modify</text>
<text text-anchor="middle" x="400.5" y="-88.67" font-family="Helvetica,sans-Serif" font-size="14.00">static/style.css</text>
</g>
<!-- 492bbc09&#45;b167&#45;4ebd&#45;896f&#45;1cbc261467cf&#45;&gt;1fbeb2dc&#45;a185&#45;42f7&#45;a603&#45;d73ad65c8a10 -->
<g id="edge2" class="edge">
<title>492bbc09&#45;b167&#45;4ebd&#45;896f&#45;1cbc261467cf&#45;&gt;1fbeb2dc&#45;a185&#45;42f7&#45;a603&#45;d73ad65c8a10</title>
<path fill="none" stroke="black" d="M248.56,-99.87C267.77,-99.87 286.97,-99.87 306.18,-99.87"/>
<polygon fill="black" stroke="black" points="306.22,-103.37 316.22,-99.87 306.22,-96.37 306.22,-103.37"/>
</g>
<!-- 104fb43b&#45;a897&#45;4b87&#45;872c&#45;d941af77f26a -->
<g id="node5" class="node">
<title>104fb43b&#45;a897&#45;4b87&#45;872c&#45;d941af77f26a</title>
<polygon fill="#0ee832" stroke="black" points="257,-36 0,-36 0,0 257,0 257,-36"/>
<text text-anchor="middle" x="128.5" y="-14.3" font-family="Helvetica,sans-Serif" font-size="14.00">✓ Run GitHub Actions for `app.py`</text>
</g>
<!-- 492bbc09&#45;b167&#45;4ebd&#45;896f&#45;1cbc261467cf&#45;&gt;104fb43b&#45;a897&#45;4b87&#45;872c&#45;d941af77f26a -->
<g id="edge1" class="edge">
<title>492bbc09&#45;b167&#45;4ebd&#45;896f&#45;1cbc261467cf&#45;&gt;104fb43b&#45;a897&#45;4b87&#45;872c&#45;d941af77f26a</title>
<path fill="none" stroke="black" stroke-dasharray="5,2" d="M172.95,-74.47C165.27,-64.89 156.46,-53.9 148.72,-44.24"/>
<polygon fill="black" stroke="black" points="151.24,-41.78 142.25,-36.16 145.77,-46.15 151.24,-41.78"/>
</g>
<!-- 1fbeb2dc&#45;a185&#45;42f7&#45;a603&#45;d73ad65c8a10&#45;&gt;end -->
<g id="edge5" class="edge">
<title>1fbeb2dc&#45;a185&#45;42f7&#45;a603&#45;d73ad65c8a10&#45;&gt;end</title>
<path fill="none" stroke="black" d="M484.74,-99.87C503.36,-99.87 520.72,-99.87 531.45,-99.87"/>
<polygon fill="black" stroke="black" points="531.8,-103.37 541.8,-99.87 531.8,-96.37 531.8,-103.37"/>
<text text-anchor="middle" x="513.32" y="-106.67" font-family="Helvetica,sans-Serif" font-size="14.00">Finish</text>
</g>
<!-- 7e78e346&#45;aaa7&#45;4d0f&#45;97a3&#45;b3d42c734249 -->
<g id="node6" class="node">
<title>7e78e346&#45;aaa7&#45;4d0f&#45;97a3&#45;b3d42c734249</title>
<polygon fill="yellow" stroke="black" points="589.5,-36 275.5,-36 275.5,0 589.5,0 589.5,-36"/>
<text text-anchor="middle" x="432.5" y="-14.3" font-family="Helvetica,sans-Serif" font-size="14.00">⋯ Run GitHub Actions for `static/style.css`</text>
</g>
<!-- 1fbeb2dc&#45;a185&#45;42f7&#45;a603&#45;d73ad65c8a10&#45;&gt;7e78e346&#45;aaa7&#45;4d0f&#45;97a3&#45;b3d42c734249 -->
<g id="edge3" class="edge">
<title>1fbeb2dc&#45;a185&#45;42f7&#45;a603&#45;d73ad65c8a10&#45;&gt;7e78e346&#45;aaa7&#45;4d0f&#45;97a3&#45;b3d42c734249</title>
<path fill="none" stroke="black" stroke-dasharray="5,2" d="M410.8,-73.16C414.31,-64.41 418.23,-54.62 421.77,-45.79"/>
<polygon fill="black" stroke="black" points="425.08,-46.92 425.55,-36.34 418.59,-44.32 425.08,-46.92"/>
</g>
</g>
</svg>
