<?xml version="1.0" encoding="UTF-8" standalone="no"?>
<!DOCTYPE svg PUBLIC "-//W3C//DTD SVG 1.1//EN"
 "http://www.w3.org/Graphics/SVG/1.1/DTD/svg11.dtd">
<!-- Generated by graphviz version 2.43.0 (0)
 -->
<!-- Title: %3 Pages: 1 -->
<svg width="660pt" height="238pt"
 viewBox="0.00 0.00 660.00 237.74" xmlns="http://www.w3.org/2000/svg" xmlns:xlink="http://www.w3.org/1999/xlink">
<g id="graph0" class="graph" transform="scale(1 1) rotate(0) translate(36 201.74)">
<title>%3</title>
<polygon fill="dimgray" stroke="transparent" points="-36,36 -36,-201.74 624,-201.74 624,36 -36,36"/>
<text text-anchor="middle" x="294" y="-150.54" font-family="Helvetica,sans-Serif" font-size="14.00">Sweep&#39;s Plan &amp; Progress</text>
<!-- start -->
<g id="node1" class="node">
<title>start</title>
</g>
<!-- 492bbc09&#45;b167&#45;4ebd&#45;896f&#45;1cbc261467cf -->
<g id="node3" class="node">
<title>492bbc09&#45;b167&#45;4ebd&#45;896f&#45;1cbc261467cf</title>
<ellipse fill="#0ee832" stroke="black" cx="193" cy="-99.87" rx="55.72" ry="26.74"/>
<text text-anchor="middle" x="193" y="-103.67" font-family="Helvetica,sans-Serif" font-size="14.00">✓ Modify</text>
<text text-anchor="middle" x="193" y="-88.67" font-family="Helvetica,sans-Serif" font-size="14.00">app.py</text>
</g>
<!-- start&#45;&gt;492bbc09&#45;b167&#45;4ebd&#45;896f&#45;1cbc261467cf -->
<g id="edge4" class="edge">
<title>start&#45;&gt;492bbc09&#45;b167&#45;4ebd&#45;896f&#45;1cbc261467cf</title>
<path fill="none" stroke="black" d="M85.69,-99.87C89.33,-99.87 106.92,-99.87 126.83,-99.87"/>
<polygon fill="black" stroke="black" points="127.07,-103.37 137.07,-99.87 127.07,-96.37 127.07,-103.37"/>
<text text-anchor="middle" x="111.32" y="-106.67" font-family="Helvetica,sans-Serif" font-size="14.00">Start</text>
</g>
<!-- end -->
<g id="node2" class="node">
<title>end</title>
</g>
<!-- 1fbeb2dc&#45;a185&#45;42f7&#45;a603&#45;d73ad65c8a10 -->
<g id="node4" class="node">
<title>1fbeb2dc&#45;a185&#45;42f7&#45;a603&#45;d73ad65c8a10</title>
<ellipse fill="white" stroke="black" cx="401" cy="-99.87" rx="84.29" ry="26.74"/>
<text text-anchor="middle" x="401" y="-103.67" font-family="Helvetica,sans-Serif" font-size="14.00">▶ Modify</text>
<text text-anchor="middle" x="401" y="-88.67" font-family="Helvetica,sans-Serif" font-size="14.00">static/style.css</text>
</g>
<!-- 492bbc09&#45;b167&#45;4ebd&#45;896f&#45;1cbc261467cf&#45;&gt;1fbeb2dc&#45;a185&#45;42f7&#45;a603&#45;d73ad65c8a10 -->
<g id="edge2" class="edge">
<title>492bbc09&#45;b167&#45;4ebd&#45;896f&#45;1cbc261467cf&#45;&gt;1fbeb2dc&#45;a185&#45;42f7&#45;a603&#45;d73ad65c8a10</title>
<path fill="none" stroke="black" d="M249.06,-99.87C268.27,-99.87 287.47,-99.87 306.68,-99.87"/>
<polygon fill="black" stroke="black" points="306.72,-103.37 316.72,-99.87 306.72,-96.37 306.72,-103.37"/>
</g>
<!-- 104fb43b&#45;a897&#45;4b87&#45;872c&#45;d941af77f26a -->
<g id="node5" class="node">
<title>104fb43b&#45;a897&#45;4b87&#45;872c&#45;d941af77f26a</title>
<polygon fill="yellow" stroke="black" points="260,-36 0,-36 0,0 260,0 260,-36"/>
<text text-anchor="middle" x="130" y="-14.3" font-family="Helvetica,sans-Serif" font-size="14.00">⋯ Run GitHub Actions for `app.py`</text>
</g>
<!-- 492bbc09&#45;b167&#45;4ebd&#45;896f&#45;1cbc261467cf&#45;&gt;104fb43b&#45;a897&#45;4b87&#45;872c&#45;d941af77f26a -->
<g id="edge1" class="edge">
<title>492bbc09&#45;b167&#45;4ebd&#45;896f&#45;1cbc261467cf&#45;&gt;104fb43b&#45;a897&#45;4b87&#45;872c&#45;d941af77f26a</title>
<path fill="none" stroke="black" stroke-dasharray="5,2" d="M173.76,-74.47C166.2,-64.89 157.53,-53.9 149.91,-44.24"/>
<polygon fill="black" stroke="black" points="152.48,-41.85 143.54,-36.16 146.98,-46.18 152.48,-41.85"/>
</g>
<!-- 1fbeb2dc&#45;a185&#45;42f7&#45;a603&#45;d73ad65c8a10&#45;&gt;end -->
<g id="edge5" class="edge">
<title>1fbeb2dc&#45;a185&#45;42f7&#45;a603&#45;d73ad65c8a10&#45;&gt;end</title>
<path fill="none" stroke="black" d="M485.24,-99.87C503.86,-99.87 521.22,-99.87 531.95,-99.87"/>
<polygon fill="black" stroke="black" points="532.3,-103.37 542.3,-99.87 532.3,-96.37 532.3,-103.37"/>
<text text-anchor="middle" x="513.82" y="-106.67" font-family="Helvetica,sans-Serif" font-size="14.00">Finish</text>
</g>
<!-- 7e78e346&#45;aaa7&#45;4d0f&#45;97a3&#45;b3d42c734249 -->
<g id="node6" class="node">
<title>7e78e346&#45;aaa7&#45;4d0f&#45;97a3&#45;b3d42c734249</title>
<polygon fill="white" stroke="black" points="588,-36 278,-36 278,0 588,0 588,-36"/>
<text text-anchor="middle" x="433" y="-14.3" font-family="Helvetica,sans-Serif" font-size="14.00">▶ Run GitHub Actions for `static/style.css`</text>
</g>
<!-- 1fbeb2dc&#45;a185&#45;42f7&#45;a603&#45;d73ad65c8a10&#45;&gt;7e78e346&#45;aaa7&#45;4d0f&#45;97a3&#45;b3d42c734249 -->
<g id="edge3" class="edge">
<title>1fbeb2dc&#45;a185&#45;42f7&#45;a603&#45;d73ad65c8a10&#45;&gt;7e78e346&#45;aaa7&#45;4d0f&#45;97a3&#45;b3d42c734249</title>
<path fill="none" stroke="black" stroke-dasharray="5,2" d="M411.3,-73.16C414.81,-64.41 418.73,-54.62 422.27,-45.79"/>
<polygon fill="black" stroke="black" points="425.58,-46.92 426.05,-36.34 419.09,-44.32 425.58,-46.92"/>
</g>
</g>
</svg>
