<?xml version="1.0" encoding="UTF-8" standalone="no"?>
<!DOCTYPE svg PUBLIC "-//W3C//DTD SVG 1.1//EN"
 "http://www.w3.org/Graphics/SVG/1.1/DTD/svg11.dtd">
<!-- Generated by graphviz version 2.43.0 (0)
 -->
<!-- Title: %3 Pages: 1 -->
<svg width="658pt" height="238pt"
 viewBox="0.00 0.00 657.50 237.74" xmlns="http://www.w3.org/2000/svg" xmlns:xlink="http://www.w3.org/1999/xlink">
<g id="graph0" class="graph" transform="scale(1 1) rotate(0) translate(36 201.74)">
<title>%3</title>
<polygon fill="dimgray" stroke="transparent" points="-36,36 -36,-201.74 621.5,-201.74 621.5,36 -36,36"/>
<text text-anchor="middle" x="292.75" y="-150.54" font-family="Helvetica,sans-Serif" font-size="14.00">Sweep&#39;s Plan &amp; Progress</text>
<!-- start -->
<g id="node1" class="node">
<title>start</title>
</g>
<!-- 492bbc09&#45;b167&#45;4ebd&#45;896f&#45;1cbc261467cf -->
<g id="node3" class="node">
<title>492bbc09&#45;b167&#45;4ebd&#45;896f&#45;1cbc261467cf</title>
<ellipse fill="#0ee832" stroke="black" cx="191.5" cy="-99.87" rx="55.72" ry="26.74"/>
<text text-anchor="middle" x="191.5" y="-103.67" font-family="Helvetica,sans-Serif" font-size="14.00">✓ Modify</text>
<text text-anchor="middle" x="191.5" y="-88.67" font-family="Helvetica,sans-Serif" font-size="14.00">app.py</text>
</g>
<!-- start&#45;&gt;492bbc09&#45;b167&#45;4ebd&#45;896f&#45;1cbc261467cf -->
<g id="edge4" class="edge">
<title>start&#45;&gt;492bbc09&#45;b167&#45;4ebd&#45;896f&#45;1cbc261467cf</title>
<path fill="none" stroke="black" d="M84.19,-99.87C87.83,-99.87 105.42,-99.87 125.33,-99.87"/>
<polygon fill="black" stroke="black" points="125.57,-103.37 135.57,-99.87 125.57,-96.37 125.57,-103.37"/>
<text text-anchor="middle" x="109.82" y="-106.67" font-family="Helvetica,sans-Serif" font-size="14.00">Start</text>
</g>
<!-- end -->
<g id="node2" class="node">
<title>end</title>
</g>
<!-- 1fbeb2dc&#45;a185&#45;42f7&#45;a603&#45;d73ad65c8a10 -->
<g id="node4" class="node">
<title>1fbeb2dc&#45;a185&#45;42f7&#45;a603&#45;d73ad65c8a10</title>
<ellipse fill="white" stroke="black" cx="399.5" cy="-99.87" rx="84.29" ry="26.74"/>
<text text-anchor="middle" x="399.5" y="-103.67" font-family="Helvetica,sans-Serif" font-size="14.00">▶ Modify</text>
<text text-anchor="middle" x="399.5" y="-88.67" font-family="Helvetica,sans-Serif" font-size="14.00">static/style.css</text>
</g>
<!-- 492bbc09&#45;b167&#45;4ebd&#45;896f&#45;1cbc261467cf&#45;&gt;1fbeb2dc&#45;a185&#45;42f7&#45;a603&#45;d73ad65c8a10 -->
<g id="edge2" class="edge">
<title>492bbc09&#45;b167&#45;4ebd&#45;896f&#45;1cbc261467cf&#45;&gt;1fbeb2dc&#45;a185&#45;42f7&#45;a603&#45;d73ad65c8a10</title>
<path fill="none" stroke="black" d="M247.56,-99.87C266.77,-99.87 285.97,-99.87 305.18,-99.87"/>
<polygon fill="black" stroke="black" points="305.22,-103.37 315.22,-99.87 305.22,-96.37 305.22,-103.37"/>
</g>
<!-- 104fb43b&#45;a897&#45;4b87&#45;872c&#45;d941af77f26a -->
<g id="node5" class="node">
<title>104fb43b&#45;a897&#45;4b87&#45;872c&#45;d941af77f26a</title>
<polygon fill="#0ee832" stroke="black" points="257,-36 0,-36 0,0 257,0 257,-36"/>
<text text-anchor="middle" x="128.5" y="-14.3" font-family="Helvetica,sans-Serif" font-size="14.00">✓ Run GitHub Actions for `app.py`</text>
</g>
<!-- 492bbc09&#45;b167&#45;4ebd&#45;896f&#45;1cbc261467cf&#45;&gt;104fb43b&#45;a897&#45;4b87&#45;872c&#45;d941af77f26a -->
<g id="edge1" class="edge">
<title>492bbc09&#45;b167&#45;4ebd&#45;896f&#45;1cbc261467cf&#45;&gt;104fb43b&#45;a897&#45;4b87&#45;872c&#45;d941af77f26a</title>
<path fill="none" stroke="black" stroke-dasharray="5,2" d="M172.26,-74.47C164.7,-64.89 156.03,-53.9 148.41,-44.24"/>
<polygon fill="black" stroke="black" points="150.98,-41.85 142.04,-36.16 145.48,-46.18 150.98,-41.85"/>
</g>
<!-- 1fbeb2dc&#45;a185&#45;42f7&#45;a603&#45;d73ad65c8a10&#45;&gt;end -->
<g id="edge5" class="edge">
<title>1fbeb2dc&#45;a185&#45;42f7&#45;a603&#45;d73ad65c8a10&#45;&gt;end</title>
<path fill="none" stroke="black" d="M483.74,-99.87C502.36,-99.87 519.72,-99.87 530.45,-99.87"/>
<polygon fill="black" stroke="black" points="530.8,-103.37 540.8,-99.87 530.8,-96.37 530.8,-103.37"/>
<text text-anchor="middle" x="512.32" y="-106.67" font-family="Helvetica,sans-Serif" font-size="14.00">Finish</text>
</g>
<!-- 7e78e346&#45;aaa7&#45;4d0f&#45;97a3&#45;b3d42c734249 -->
<g id="node6" class="node">
<title>7e78e346&#45;aaa7&#45;4d0f&#45;97a3&#45;b3d42c734249</title>
<polygon fill="white" stroke="black" points="585.5,-36 275.5,-36 275.5,0 585.5,0 585.5,-36"/>
<text text-anchor="middle" x="430.5" y="-14.3" font-family="Helvetica,sans-Serif" font-size="14.00">▶ Run GitHub Actions for `static/style.css`</text>
</g>
<!-- 1fbeb2dc&#45;a185&#45;42f7&#45;a603&#45;d73ad65c8a10&#45;&gt;7e78e346&#45;aaa7&#45;4d0f&#45;97a3&#45;b3d42c734249 -->
<g id="edge3" class="edge">
<title>1fbeb2dc&#45;a185&#45;42f7&#45;a603&#45;d73ad65c8a10&#45;&gt;7e78e346&#45;aaa7&#45;4d0f&#45;97a3&#45;b3d42c734249</title>
<path fill="none" stroke="black" stroke-dasharray="5,2" d="M409.48,-73.16C412.87,-64.41 416.68,-54.62 420.1,-45.79"/>
<polygon fill="black" stroke="black" points="423.42,-46.93 423.77,-36.34 416.89,-44.39 423.42,-46.93"/>
</g>
</g>
</svg>
