<?xml version="1.0" encoding="UTF-8" standalone="no"?>
<!DOCTYPE svg PUBLIC "-//W3C//DTD SVG 1.1//EN"
 "http://www.w3.org/Graphics/SVG/1.1/DTD/svg11.dtd">
<!-- Generated by graphviz version 2.43.0 (0)
 -->
<!-- Title: %3 Pages: 1 -->
<svg width="1040pt" height="238pt"
 viewBox="0.00 0.00 1039.50 237.74" xmlns="http://www.w3.org/2000/svg" xmlns:xlink="http://www.w3.org/1999/xlink">
<g id="graph0" class="graph" transform="scale(1 1) rotate(0) translate(36 201.74)">
<title>%3</title>
<polygon fill="dimgray" stroke="transparent" points="-36,36 -36,-201.74 1003.5,-201.74 1003.5,36 -36,36"/>
<text text-anchor="middle" x="483.75" y="-150.54" font-family="Helvetica,sans-Serif" font-size="14.00">Sweep&#39;s Plan &amp; Progress</text>
<!-- start -->
<g id="node1" class="node">
<title>start</title>
</g>
<!-- c5ed4f06&#45;50a2&#45;4e13&#45;90ad&#45;136fe1867cff -->
<g id="node3" class="node">
<title>c5ed4f06&#45;50a2&#45;4e13&#45;90ad&#45;136fe1867cff</title>
<ellipse fill="yellow" stroke="black" cx="240.5" cy="-99.87" rx="122.16" ry="26.74"/>
<text text-anchor="middle" x="240.5" y="-103.67" font-family="Helvetica,sans-Serif" font-size="14.00">⋯ Create</text>
<text text-anchor="middle" x="240.5" y="-88.67" font-family="Helvetica,sans-Serif" font-size="14.00">templates/navbar.html</text>
</g>
<!-- start&#45;&gt;c5ed4f06&#45;50a2&#45;4e13&#45;90ad&#45;136fe1867cff -->
<g id="edge6" class="edge">
<title>start&#45;&gt;c5ed4f06&#45;50a2&#45;4e13&#45;90ad&#45;136fe1867cff</title>
<path fill="none" stroke="black" d="M67.28,-99.87C70.89,-99.87 86.83,-99.87 107.67,-99.87"/>
<polygon fill="black" stroke="black" points="107.92,-103.37 117.92,-99.87 107.92,-96.37 107.92,-103.37"/>
<text text-anchor="middle" x="92.59" y="-106.67" font-family="Helvetica,sans-Serif" font-size="14.00">Start</text>
</g>
<!-- end -->
<g id="node2" class="node">
<title>end</title>
</g>
<!-- 5fbbaca5&#45;46d9&#45;4ff6&#45;8ca5&#45;c78f9e83715a -->
<g id="node4" class="node">
<title>5fbbaca5&#45;46d9&#45;4ff6&#45;8ca5&#45;c78f9e83715a</title>
<ellipse fill="white" stroke="black" cx="511.5" cy="-99.87" rx="54.39" ry="26.74"/>
<text text-anchor="middle" x="511.5" y="-103.67" font-family="Helvetica,sans-Serif" font-size="14.00">▶ Modify</text>
<text text-anchor="middle" x="511.5" y="-88.67" font-family="Helvetica,sans-Serif" font-size="14.00">app.py</text>
</g>
<!-- c5ed4f06&#45;50a2&#45;4e13&#45;90ad&#45;136fe1867cff&#45;&gt;5fbbaca5&#45;46d9&#45;4ff6&#45;8ca5&#45;c78f9e83715a -->
<g id="edge2" class="edge">
<title>c5ed4f06&#45;50a2&#45;4e13&#45;90ad&#45;136fe1867cff&#45;&gt;5fbbaca5&#45;46d9&#45;4ff6&#45;8ca5&#45;c78f9e83715a</title>
<path fill="none" stroke="black" d="M363.03,-99.87C390.92,-99.87 418.82,-99.87 446.71,-99.87"/>
<polygon fill="black" stroke="black" points="446.98,-103.37 456.98,-99.87 446.98,-96.37 446.98,-103.37"/>
</g>
<!-- b2a248e5&#45;397e&#45;4f75&#45;bc4c&#45;266965b63fd5 -->
<g id="node6" class="node">
<title>b2a248e5&#45;397e&#45;4f75&#45;bc4c&#45;266965b63fd5</title>
<polygon fill="white" stroke="black" points="365,-36 0,-36 0,0 365,0 365,-36"/>
<text text-anchor="middle" x="182.5" y="-14.3" font-family="Helvetica,sans-Serif" font-size="14.00">▶ Run GitHub Actions for `templates/navbar.html`</text>
</g>
<!-- c5ed4f06&#45;50a2&#45;4e13&#45;90ad&#45;136fe1867cff&#45;&gt;b2a248e5&#45;397e&#45;4f75&#45;bc4c&#45;266965b63fd5 -->
<g id="edge1" class="edge">
<title>c5ed4f06&#45;50a2&#45;4e13&#45;90ad&#45;136fe1867cff&#45;&gt;b2a248e5&#45;397e&#45;4f75&#45;bc4c&#45;266965b63fd5</title>
<path fill="none" stroke="black" stroke-dasharray="5,2" d="M221.83,-73.16C215.2,-64.04 207.75,-53.77 201.13,-44.65"/>
<polygon fill="black" stroke="black" points="203.8,-42.37 195.09,-36.34 198.13,-46.48 203.8,-42.37"/>
</g>
<!-- 6bd4e5f4&#45;8714&#45;48a0&#45;a493&#45;d9af84b109fa -->
<g id="node5" class="node">
<title>6bd4e5f4&#45;8714&#45;48a0&#45;a493&#45;d9af84b109fa</title>
<ellipse fill="white" stroke="black" cx="749.5" cy="-99.87" rx="84.29" ry="26.74"/>
<text text-anchor="middle" x="749.5" y="-103.67" font-family="Helvetica,sans-Serif" font-size="14.00">▶ Modify</text>
<text text-anchor="middle" x="749.5" y="-88.67" font-family="Helvetica,sans-Serif" font-size="14.00">static/style.css</text>
</g>
<!-- 5fbbaca5&#45;46d9&#45;4ff6&#45;8ca5&#45;c78f9e83715a&#45;&gt;6bd4e5f4&#45;8714&#45;48a0&#45;a493&#45;d9af84b109fa -->
<g id="edge4" class="edge">
<title>5fbbaca5&#45;46d9&#45;4ff6&#45;8ca5&#45;c78f9e83715a&#45;&gt;6bd4e5f4&#45;8714&#45;48a0&#45;a493&#45;d9af84b109fa</title>
<path fill="none" stroke="black" d="M566.35,-99.87C595.92,-99.87 625.49,-99.87 655.05,-99.87"/>
<polygon fill="black" stroke="black" points="655.08,-103.37 665.08,-99.87 655.08,-96.37 655.08,-103.37"/>
</g>
<!-- a45cd99f&#45;9482&#45;4444&#45;be90&#45;01962d4fd2b5 -->
<g id="node7" class="node">
<title>a45cd99f&#45;9482&#45;4444&#45;be90&#45;01962d4fd2b5</title>
<polygon fill="white" stroke="black" points="639.5,-36 383.5,-36 383.5,0 639.5,0 639.5,-36"/>
<text text-anchor="middle" x="511.5" y="-14.3" font-family="Helvetica,sans-Serif" font-size="14.00">▶ Run GitHub Actions for `app.py`</text>
</g>
<!-- 5fbbaca5&#45;46d9&#45;4ff6&#45;8ca5&#45;c78f9e83715a&#45;&gt;a45cd99f&#45;9482&#45;4444&#45;be90&#45;01962d4fd2b5 -->
<g id="edge3" class="edge">
<title>5fbbaca5&#45;46d9&#45;4ff6&#45;8ca5&#45;c78f9e83715a&#45;&gt;a45cd99f&#45;9482&#45;4444&#45;be90&#45;01962d4fd2b5</title>
<path fill="none" stroke="black" stroke-dasharray="5,2" d="M511.5,-72.72C511.5,-64.27 511.5,-54.89 511.5,-46.36"/>
<polygon fill="black" stroke="black" points="515,-46.15 511.5,-36.15 508,-46.15 515,-46.15"/>
</g>
<!-- 6bd4e5f4&#45;8714&#45;48a0&#45;a493&#45;d9af84b109fa&#45;&gt;end -->
<g id="edge7" class="edge">
<title>6bd4e5f4&#45;8714&#45;48a0&#45;a493&#45;d9af84b109fa&#45;&gt;end</title>
<path fill="none" stroke="black" d="M833.74,-99.87C852.36,-99.87 869.72,-99.87 880.45,-99.87"/>
<polygon fill="black" stroke="black" points="880.8,-103.37 890.8,-99.87 880.8,-96.37 880.8,-103.37"/>
<text text-anchor="middle" x="862.32" y="-106.67" font-family="Helvetica,sans-Serif" font-size="14.00">Finish</text>
</g>
<!-- 670bf962&#45;5e35&#45;4168&#45;9e21&#45;7104369c8764 -->
<g id="node8" class="node">
<title>670bf962&#45;5e35&#45;4168&#45;9e21&#45;7104369c8764</title>
<polygon fill="white" stroke="black" points="967.5,-36 657.5,-36 657.5,0 967.5,0 967.5,-36"/>
<text text-anchor="middle" x="812.5" y="-14.3" font-family="Helvetica,sans-Serif" font-size="14.00">▶ Run GitHub Actions for `static/style.css`</text>
</g>
<!-- 6bd4e5f4&#45;8714&#45;48a0&#45;a493&#45;d9af84b109fa&#45;&gt;670bf962&#45;5e35&#45;4168&#45;9e21&#45;7104369c8764 -->
<g id="edge5" class="edge">
<title>6bd4e5f4&#45;8714&#45;48a0&#45;a493&#45;d9af84b109fa&#45;&gt;670bf962&#45;5e35&#45;4168&#45;9e21&#45;7104369c8764</title>
<path fill="none" stroke="black" stroke-dasharray="5,2" d="M769.43,-73.6C776.91,-64.13 785.39,-53.37 792.83,-43.93"/>
<polygon fill="black" stroke="black" points="795.62,-46.06 799.06,-36.04 790.12,-41.72 795.62,-46.06"/>
</g>
</g>
</svg>
